<svg id="svg" version="1.1" xmlns="http://www.w3.org/2000/svg" xmlns:xlink="http://www.w3.org/1999/xlink" width="400" height="78.81773399014779" viewBox="0, 0, 400,78.81773399014779"><g id="svgg"><path id="path0" d="M380.213 7.136 C 370.198 13.488,374.127 29.234,386.079 30.649 C 400.147 32.315,405.688 12.519,392.982 5.992 C 390.052 4.486,383.460 5.077,380.213 7.136 M392.193 9.316 C 396.526 11.752,398.312 16.842,396.421 21.368 C 395.288 24.079,394.608 24.207,393.151 21.984 C 392.170 20.487,392.163 20.223,393.076 19.310 C 396.836 15.550,393.353 10.959,386.477 10.611 L 381.609 10.365 381.609 17.662 L 381.609 24.959 383.908 24.959 C 386.024 24.959,386.207 24.803,386.207 22.989 C 386.207 20.454,387.550 20.435,389.034 22.948 C 389.856 24.340,390.765 24.935,392.296 25.083 L 394.417 25.287 392.019 26.437 C 382.992 30.764,374.210 21.505,379.157 12.876 C 381.891 8.107,387.377 6.609,392.193 9.316 M202.956 40.066 L 202.956 70.279 212.808 70.279 L 222.660 70.279 222.660 66.427 C 222.660 62.820,224.275 59.094,225.828 59.121 C 226.072 59.125,227.578 61.638,229.174 64.704 L 232.076 70.279 242.486 70.279 L 252.896 70.279 251.309 67.159 C 250.436 65.443,247.223 59.414,244.168 53.761 L 238.613 43.482 245.398 34.713 C 249.130 29.890,252.191 25.722,252.200 25.452 C 252.209 25.181,247.543 24.959,241.830 24.959 L 231.444 24.959 227.052 31.338 L 222.660 37.717 222.660 23.784 L 222.660 9.852 212.808 9.852 L 202.956 9.852 202.956 40.066 M30.378 12.135 C 20.444 14.941,14.440 21.988,14.454 30.825 C 14.468 40.357,20.408 45.221,37.212 49.462 C 42.677 50.841,45.768 51.948,46.230 52.691 C 49.137 57.372,32.664 55.753,24.969 50.603 C 22.654 49.053,21.857 48.804,21.248 49.439 C 20.821 49.883,18.381 52.759,15.825 55.829 L 11.178 61.412 12.978 62.884 C 29.595 76.468,61.354 73.272,66.025 57.545 C 69.866 44.611,64.075 37.862,45.156 33.221 C 35.449 30.840,34.811 30.591,34.811 29.175 C 34.811 25.882,44.481 26.663,51.797 30.548 C 54.148 31.796,56.122 32.749,56.185 32.665 C 56.247 32.581,58.431 29.562,61.038 25.956 L 65.778 19.400 64.258 18.170 C 57.305 12.540,39.913 9.442,30.378 12.135 M275.664 11.885 C 257.312 16.204,247.665 37.308,255.951 55.007 C 264.153 72.523,289.916 77.218,304.287 63.814 C 307.251 61.051,311.088 55.977,310.556 55.525 C 309.668 54.769,294.968 46.634,294.490 46.634 C 294.154 46.634,293.368 47.499,292.744 48.556 C 287.242 57.870,274.314 53.778,273.403 42.435 C 272.412 30.086,285.324 23.997,292.244 33.549 L 294.024 36.006 302.020 31.327 C 311.078 26.028,310.855 26.404,307.531 22.014 C 300.922 13.289,287.640 9.067,275.664 11.885 M313.957 41.332 L 313.957 70.279 323.810 70.279 L 333.662 70.279 333.662 62.397 L 333.662 54.516 339.737 54.508 C 357.082 54.486,366.762 45.738,365.654 31.088 C 365.031 22.845,361.841 18.468,353.667 14.640 L 349.754 12.808 331.856 12.597 L 313.957 12.385 313.957 41.332 M73.563 19.376 L 73.563 24.959 70.936 24.959 L 68.309 24.959 68.309 32.512 L 68.309 40.066 70.867 40.066 L 73.426 40.066 73.682 50.411 C 73.991 62.874,75.380 66.474,81.008 69.402 C 85.471 71.724,96.456 71.791,101.425 69.527 C 103.623 68.525,104.192 53.307,102.000 54.148 C 95.095 56.798,93.268 55.215,93.268 46.587 L 93.268 40.066 98.194 40.066 L 103.120 40.066 103.120 32.512 L 103.120 24.959 98.194 24.959 L 93.268 24.959 93.268 19.376 L 93.268 13.793 83.415 13.793 L 73.563 13.793 73.563 19.376 M389.491 14.778 C 390.514 16.011,389.318 17.734,387.440 17.734 C 386.508 17.734,386.207 17.253,386.207 15.764 C 386.207 13.554,388.022 13.009,389.491 14.778 M175.225 24.289 C 159.296 27.141,150.769 44.139,157.929 58.771 C 165.388 74.019,189.077 76.011,199.060 62.231 C 201.619 58.698,201.866 59.094,194.483 54.913 C 186.847 50.590,187.614 50.725,184.793 53.202 C 181.254 56.309,177.036 55.747,175.048 51.901 C 171.060 44.189,179.094 36.434,184.977 42.317 L 187.228 44.568 194.098 40.626 L 200.968 36.684 199.932 34.680 C 196.015 27.104,185.112 22.519,175.225 24.289 M114.450 25.681 C 111.470 26.424,109.033 27.378,109.035 27.802 C 109.039 28.586,109.677 31.159,111.367 37.206 L 112.312 40.586 116.313 39.340 C 120.803 37.943,127.429 37.703,129.600 38.859 C 132.721 40.522,134.002 44.471,131.199 43.790 C 117.349 40.422,106.227 45.545,105.247 55.746 C 104.028 68.425,117.177 75.643,129.228 68.910 L 132.677 66.984 132.677 68.631 L 132.677 70.279 142.603 70.279 L 152.530 70.279 152.204 54.351 C 151.840 36.570,151.530 34.954,147.636 30.531 C 142.471 24.662,127.383 22.458,114.450 25.681 M344.578 30.440 C 348.523 35.026,345.069 40.066,337.982 40.066 L 333.662 40.066 333.662 34.080 L 333.662 28.095 338.339 28.359 C 342.467 28.592,343.199 28.837,344.578 30.440 M132.568 51.808 C 133.660 52.499,132.670 56.649,130.964 58.534 C 128.169 61.622,122.850 58.902,123.855 54.898 C 124.624 51.834,129.745 50.018,132.568 51.808 " stroke="none" fill="#000000" fill-rule="evenodd"></path></g></svg>